<?xml version="1.0" encoding="UTF-8"?>
<svg version="1.1" xmlns="http://www.w3.org/2000/svg" width="500" height="500">
<path d="M0 0 C3.63824884 -0.04165037 7.2749831 -0.0980787 10.91236019 -0.18901825 C14.42679157 -0.2763281 17.93977234 -0.32385306 21.45520496 -0.34452057 C23.44027664 -0.36636929 25.42476897 -0.42876462 27.40895748 -0.49187469 C36.08174165 -0.4961676 39.88647656 1.00659869 44.50244808 8.41449738 C45.31594721 9.53380352 46.13217271 10.65113546 46.95166683 11.76605988 C47.69029964 12.84629425 48.42893246 13.92652863 49.18994808 15.03949738 C53.14296252 20.71011308 57.42035082 25.96366675 61.96997738 31.16303253 C65.44968105 35.15015825 68.76528345 39.228559 72.00244808 43.41449738 C76.23588232 48.87825192 80.645864 54.15468853 85.16699886 59.38202667 C88.86707397 63.66162439 92.47749528 68.00417258 96.04541683 72.39496613 C99.07844708 76.1223626 102.13347267 79.83131966 105.18994808 83.53949738 C108.83881776 87.96670028 112.48709858 92.39434627 116.12744808 96.82855988 C117.31484362 98.2739582 118.50234245 99.71927167 119.68994808 101.16449738 C120.26680355 101.86687531 120.84365902 102.56925323 121.43799496 103.29291534 C124.17361863 106.61618576 126.92444497 109.92368401 129.72119808 113.19574738 C130.22369076 113.78388214 130.72618343 114.37201691 131.24390316 114.97797394 C132.59060095 116.54862873 133.94279366 118.11456752 135.29541683 119.68012238 C137.30609831 122.17123218 138.89064807 124.65834535 140.50244808 127.41449738 C135.02621228 127.76396263 129.55660749 128.01602828 124.07178402 128.18354034 C122.21256061 128.25341417 120.35409178 128.34857043 118.49756527 128.47064972 C104.3279256 129.37817777 97.49919996 127.28544197 89.65601254 115.1563797 C87.95561705 112.58878251 85.98488742 110.26718504 84.00244808 107.91449738 C83.29088558 107.03793488 82.57932308 106.16137238 81.84619808 105.25824738 C79.1094267 101.93763144 76.31138423 98.67406029 73.50244808 95.41449738 C69.18310536 90.40134965 64.95147531 85.32912222 60.77979183 80.19184113 C58.22040755 77.0705337 55.61651017 73.98999708 53.00244808 70.91449738 C49.62961219 66.94546194 46.29068163 62.95432716 43.00244808 58.91449738 C38.76149742 53.70484035 34.430232 48.57623264 30.08057308 43.45746613 C27.53830324 40.45681733 25.02017451 37.43576909 22.50244808 34.41449738 C22.17244808 65.10449738 21.84244808 95.79449738 21.50244808 127.41449738 C18.20244808 127.41449738 14.90244808 127.41449738 11.50244808 127.41449738 C11.5076849 126.10206558 11.51292171 124.78963379 11.51831722 123.43743134 C11.5624816 111.06313704 11.56464699 98.68945146 11.52579403 86.31513119 C11.50716649 79.95339582 11.50328701 73.59236646 11.5332098 67.23065948 C11.56154865 61.09000339 11.55101944 54.95052629 11.51364803 48.8099308 C11.50620696 46.46841489 11.51272297 44.12681129 11.53348446 41.7853756 C11.56020211 38.50214197 11.53709595 35.22272473 11.50244808 31.93964386 C11.52185955 30.97363251 11.54127102 30.00762115 11.56127071 29.01233673 C11.20852553 12.62986225 -11.17248093 6.73863766 -24.49755192 4.41449738 C-22.68134366 -2.85033565 -7.30870934 0.0809351 0 0 Z " fill="#000000" transform="translate(138.49755191802979,71.58550262451172)"/>
<path d="M0 0 C76 0 76 0 77 3 C75.44255761 6.11488477 73.27312407 5.49969442 69.9375 5.875 C53.2909472 8.26088448 45.66310733 18.74574796 43.91650391 35.09326172 C43.83137354 35.88080778 43.74624317 36.66835384 43.6585331 37.47976494 C42.74987457 46.54365142 42.64673024 55.59338899 42.5859375 64.6953125 C42.56716351 66.5080548 42.54758584 68.32078893 42.5272522 70.1335144 C42.47658151 74.83830888 42.43661388 79.5431315 42.39910889 84.24804688 C42.35865406 89.07558778 42.30775413 93.90301832 42.2578125 98.73046875 C42.16182692 108.15356757 42.07718241 117.57672968 42 127 C39.03 127 36.06 127 33 127 C32.98786972 125.51900314 32.98786972 125.51900314 32.97549438 124.00808716 C32.89742749 114.62468838 32.80954556 105.24142391 32.71247292 95.85820198 C32.66289171 91.03619285 32.61656421 86.21420169 32.578125 81.39208984 C32.54078252 76.7235277 32.49430291 72.05513184 32.44193649 67.38671494 C32.42364861 65.62090905 32.40845042 63.85506789 32.39665604 62.0892067 C32.33441945 53.07877147 32.06599876 44.15592104 31.11083984 35.19091797 C31.03552347 34.46476854 30.9602071 33.73861912 30.88260841 32.99046516 C28.68517382 14.35835873 18.88371377 6.62579216 1 5 C0.67 3.35 0.34 1.7 0 0 Z " fill="#000000" transform="translate(316,72)"/>
<path d="M0 0 C0.5234375 3.6640625 0.5234375 3.6640625 0.375 7.625 C0.34148437 8.93726563 0.30796875 10.24953125 0.2734375 11.6015625 C0 15 0 15 -1 18 C0.98 18 2.96 18 5 18 C4.44894091 21.9492568 3.61064629 25.34920174 2 29 C0.35 29 -1.3 29 -3 29 C-3 28.01 -3 27.02 -3 26 C-3.51949219 27.08539063 -4.03898437 28.17078125 -4.57421875 29.2890625 C-5.27820848 30.73458808 -5.98266025 32.1798887 -6.6875 33.625 C-7.02716797 34.33785156 -7.36683594 35.05070312 -7.71679688 35.78515625 C-11.69133687 43.88281717 -16.79588129 52.33097201 -27 51 C-28.875 49.5 -28.875 49.5 -30 48 C-29.01 48 -28.02 48 -27 48 C-11.32132833 46.83861691 -4.39021851 26.8481942 -2.76171875 12.96923828 C-2.13708056 5.06939241 -2.13708056 5.06939241 -5 -2 C-12.71410983 -3.28568497 -24.12838433 0.0425108 -27 8 C-25.68 8.33 -24.36 8.66 -23 9 C-23 9.66 -23 10.32 -23 11 C-28.67567568 9.86486486 -28.67567568 9.86486486 -29 5 C-22.37808564 -3.75801576 -7.7225433 -10.06593574 0 0 Z M-2 20 C-1 22 -1 22 -1 22 Z " fill="#000000" transform="translate(200,204)"/>
<path d="M0 0 C0.0501123 0.648479 0.10022461 1.29695801 0.15185547 1.96508789 C1.04309652 13.37842989 1.93453175 24.7479925 3.6328125 36.07421875 C3.96940044 38.75618007 4.07009664 41.30127938 4 44 C6.6432069 42.67839655 6.80703309 41.51044143 7.91796875 38.80078125 C8.28180664 37.92752197 8.64564453 37.0542627 9.02050781 36.15454102 C9.40561523 35.21666748 9.79072266 34.27879395 10.1875 33.3125 C12.91129505 26.83112087 15.64072621 20.36998462 18.75 14.0625 C19.51570313 12.50208984 19.51570313 12.50208984 20.296875 10.91015625 C24.83051912 3.16344783 28.59315964 -1.26460972 38 1 C40.57397323 4.86095984 39.98220443 6.58008008 39 11 C35.78548731 12.60725635 32.56387464 12.05748185 29 12 C29 11.34 29 10.68 29 10 C32.465 9.505 32.465 9.505 36 9 C36.33 7.35 36.66 5.7 37 4 C28.64538083 1.66847837 25.4590092 7.06709642 21.9375 13.9375 C21.56826416 14.64318115 21.19902832 15.3488623 20.81860352 16.07592773 C14.76971125 28.00420967 9.97129161 40.5951906 5 53 C4.34 53 3.68 53 3 53 C1 39 -1 25 -3 11 C-3.30180176 11.79583496 -3.60360352 12.59166992 -3.91455078 13.41162109 C-5.05884576 16.41523181 -6.21170755 19.41538171 -7.37011719 22.41357422 C-7.86598669 23.70200099 -8.35860467 24.99168477 -8.84765625 26.28271484 C-19.27120935 53.77270017 -19.27120935 53.77270017 -32 54 C-37.63963927 51.24017653 -37.23039849 50.04945926 -36 44 C-33.31423973 41.13518904 -32.81824158 40.72725281 -29 42 C-29.825 42.5775 -30.65 43.155 -31.5 43.75 C-34.49552943 45.88540882 -34.49552943 45.88540882 -34 50 C-24.23537106 52.49792833 -20.96328317 45.75231289 -17 38 C-15.16841633 33.94823356 -13.53436641 29.8366311 -11.9375 25.6875 C-11.29288818 24.04406616 -11.29288818 24.04406616 -10.63525391 22.36743164 C-9.41432004 19.24842482 -8.20523149 16.12510176 -7 13 C-6.41558777 11.494705 -5.83098594 9.98948357 -5.24609375 8.484375 C-1.96634086 0 -1.96634086 0 0 0 Z " fill="#000000" transform="translate(313,200)"/>
<path d="M0 0 C-2.1293199 7.92596639 -4.37754657 15.81243957 -6.6875 23.6875 C-7.00783203 24.78255859 -7.32816406 25.87761719 -7.65820312 27.00585938 C-8.43791212 29.67083489 -9.21852405 32.3355422 -10 35 C-5.05 34.505 -5.05 34.505 0 34 C0.33 34.66 0.66 35.32 1 36 C-0.60341555 36.33692785 -2.20776555 36.66941093 -3.8125 37 C-5.15248047 37.2784375 -5.15248047 37.2784375 -6.51953125 37.5625 C-9 38 -9 38 -12 38 C-12.10957031 38.64066406 -12.21914062 39.28132813 -12.33203125 39.94140625 C-15.0923994 55 -15.0923994 55 -18 55 C-18.99 47.575 -18.99 47.575 -20 40 C-22.1346875 39.9690625 -22.1346875 39.9690625 -24.3125 39.9375 C-25.11300781 39.92589844 -25.91351563 39.91429687 -26.73828125 39.90234375 C-32.63234581 40.15683704 -32.92094676 43.02092817 -34.1875 48.0625 C-34.36474609 48.72572266 -34.54199219 49.38894531 -34.72460938 50.07226562 C-35.16105196 51.71187426 -35.58200219 53.35559238 -36 55 C-36.66 55 -37.32 55 -38 55 C-37.44880349 49.76363313 -36.51095593 45.06723024 -35 40 C-36.31355469 40.02320313 -37.62710938 40.04640625 -38.98046875 40.0703125 C-40.71614013 40.08907651 -42.45181768 40.10727604 -44.1875 40.125 C-45.05181641 40.14175781 -45.91613281 40.15851563 -46.80664062 40.17578125 C-51.32208103 40.21038233 -54.90081483 40.15567916 -59 38 C-57.98510135 28.52761264 -44.60533927 25.84240107 -36.9375 25.25 C-33.9984375 25.12625 -33.9984375 25.12625 -31 25 C-28.69 17.41 -26.38 9.82 -24 2 C-23.34 2 -22.68 2 -22 2 C-23.51434102 10.46835441 -25.72371337 18.71254868 -28 27 C-27.22269531 27.2784375 -26.44539063 27.556875 -25.64453125 27.84375 C-22.14702521 29.37294023 -19 31.93538655 -19 36 C-12.90990445 36.975441 -12.90990445 36.975441 -12.58984375 34.18359375 C-10.79772868 26.63954048 -8.62276744 19.23202046 -6.375 11.8125 C-6.06167725 10.772146 -5.74835449 9.73179199 -5.42553711 8.65991211 C-4.9789978 7.19823608 -4.9789978 7.19823608 -4.5234375 5.70703125 C-4.25450684 4.8250708 -3.98557617 3.94311035 -3.70849609 3.03442383 C-2.65174607 0 -2.65174607 0 0 0 Z M-57 37 C-54.54724859 38.2263757 -52.9494219 38.11415314 -50.2109375 38.09765625 C-48.79941406 38.09282227 -48.79941406 38.09282227 -47.359375 38.08789062 C-45.88210937 38.07532227 -45.88210937 38.07532227 -44.375 38.0625 C-43.38242187 38.05798828 -42.38984375 38.05347656 -41.3671875 38.04882812 C-34.75612765 38.45541757 -34.75612765 38.45541757 -32 33 C-31.38647306 29.32928163 -31.38647306 29.32928163 -33.703125 27.45703125 C-41.52320319 25.90099528 -52.95756712 29.92574245 -57 37 Z M-30.0625 30.6875 C-31.21845993 33.53886783 -30.80967438 35.08517222 -30 38 C-28.0509375 37.814375 -28.0509375 37.814375 -26.0625 37.625 C-25.33160156 37.55539063 -24.60070313 37.48578125 -23.84765625 37.4140625 C-21.77747383 37.20076759 -21.77747383 37.20076759 -21 35 C-25.27535017 29.58070563 -25.27535017 29.58070563 -30.0625 30.6875 Z M-17 39 C-17.04063832 40.66617115 -17.042721 42.33388095 -17 44 C-14.21553546 44.32686023 -14.21553546 44.32686023 -14 39 C-15.94729537 37.63106761 -15.94729537 37.63106761 -17 39 Z " fill="#000000" transform="translate(77,199)"/>
<path d="M0 0 C1.49413385 4.48240156 -0.61420324 5.04643262 -4 8 C-7.8125 8.8125 -7.8125 8.8125 -11 9 C-0.78818335 19.91607987 14.41642135 11.32197127 25 5 C25.99 4.34 26.98 3.68 28 3 C28 6.3 28 9.6 28 13 C33.85073297 10.7897231 35.08037236 8.65223693 37 3 C39 3 39 3 40 6 C41.11375 5.814375 42.2275 5.62875 43.375 5.4375 C47 5 47 5 49 6 C53.94269981 6.2430836 57.49009758 6.25495121 62 4 C58.58579177 11.56003251 50.10965066 9.45838988 43 8 C42.566875 8.8971875 42.566875 8.8971875 42.125 9.8125 C41 12 41 12 39 15 C38.11560693 18.08284386 37.33712809 21.16991151 36.58789062 24.28710938 C33.63031059 36.05851359 33.63031059 36.05851359 28 38 C23.59199443 31.38799164 28.82012606 24.07902343 32.66015625 18.1640625 C34.14329411 15.95432908 34.14329411 15.95432908 35 13 C34.2575 13.515625 33.515 14.03125 32.75 14.5625 C28.78727915 16.63392226 28.78727915 16.63392226 26 15 C25.28055589 13.01837324 24.60997212 11.01801349 24 9 C23.21496094 9.40992188 22.42992187 9.81984375 21.62109375 10.2421875 C10.95871587 15.7107445 -2.89658611 22.10341389 -13 12 C-13 3.75604164 -8.35617198 -0.99478238 0 0 Z M-10 7 C-4.49214017 6.54626611 -4.49214017 6.54626611 -2 2 C-7.02305778 2 -7.25918164 3.0845452 -10 7 Z M34 20 C32.96455826 21.90881434 31.94709915 23.82739204 30.9375 25.75 C30.36902344 26.81734375 29.80054688 27.8846875 29.21484375 28.984375 C27.98955194 32.02593537 27.74651393 33.04893565 29 36 C32.90843295 31.53321948 35.93756084 25.86504904 34 20 Z " fill="#000000" transform="translate(90,238)"/>
<path d="M0 0 C1.07727273 5.38636364 1.07727273 5.38636364 -3 8 C-6.75 8.6875 -6.75 8.6875 -10 9 C-7.98092265 15.05723206 -0.59594506 14.63612875 5 14 C13.82905953 12.17428171 21.20160722 8.30802853 28.1875 2.6875 C31.51875923 0.07723476 33.67887164 -0.64816925 38 0 C39.35346413 3.56822363 39.09521642 4.73017463 36 7 C32.61554014 8.64883942 30.86245304 9 27 9 C35.09852385 17.96622284 48.04199263 13.76714203 57.546875 8.62109375 C58.88827863 7.76191004 60.21340089 6.87612613 61.51171875 5.953125 C63 5 63 5 65 5 C63.5394691 9.38159271 60.17985895 10.23617695 56.25 12.125 C55.53328125 12.48464844 54.8165625 12.84429687 54.078125 13.21484375 C45.02402273 17.65867704 32.94662687 19.94662687 25 12 C25 11.01 25 10.02 25 9 C24.2265625 9.40992188 23.453125 9.81984375 22.65625 10.2421875 C11.08913382 16.22616592 1.29893215 19.72536497 -11 14 C-11.99 12.515 -11.99 12.515 -13 11 C-13.928125 11.639375 -14.85625 12.27875 -15.8125 12.9375 C-21.91265066 16.88465631 -29.20553131 17.94234095 -35 13 C-36.3125 10.3125 -36.3125 10.3125 -37 8 C-39.75072177 9.52817876 -41.95315792 10.95315792 -44.1875 13.1875 C-46 15 -46 15 -48 15 C-48.66 12.69 -49.32 10.38 -50 8 C-55.05635233 8.14871625 -56.80338722 10.74744974 -59.66796875 14.50390625 C-61 16 -61 16 -63 16 C-63 13.69 -63 11.38 -63 9 C-63.49886719 9.27714844 -63.99773437 9.55429688 -64.51171875 9.83984375 C-70.45986565 12.84061445 -75.64319909 13.52482243 -82.27734375 13.7265625 C-85.14656276 13.72462415 -85.14656276 13.72462415 -87 16 C-91.99162004 15.89600792 -94.19900402 15.1492599 -95 10 C-93.42883251 5.19407592 -92.16859121 3.27938331 -87 3 C-87.639375 3.721875 -88.27875 4.44375 -88.9375 5.1875 C-90.98673535 7.98191184 -91.61332946 9.61663274 -92 13 C-90.35 12.67 -88.7 12.34 -87 12 C-87.33 10.02 -87.66 8.04 -88 6 C-86.68 5.34 -85.36 4.68 -84 4 C-83.67 6.31 -83.34 8.62 -83 11 C-72.03418238 10.01139438 -72.03418238 10.01139438 -62.453125 5.0234375 C-61 4 -61 4 -59 4 C-59 5.65 -59 7.3 -59 9 C-58.113125 8.319375 -57.22625 7.63875 -56.3125 6.9375 C-52.74933914 4.85338705 -51.74135172 4.44110345 -48 6 C-47.34 6.99 -46.68 7.98 -46 9 C-43.3094472 7.77992056 -43.3094472 7.77992056 -41 6 C-35.57950415 4.97450078 -34.58985482 7.62403841 -32 12 C-22.03170629 16.98414686 -13.48446425 7.79876599 -6.921875 1.3203125 C-4.48375811 -0.35465398 -2.89633174 -0.24968377 0 0 Z M-9 6 C-5.0875493 7.30415023 -4.21923673 6.34917275 -1 4 C-1 3.34 -1 2.68 -1 2 C-5.67104093 2 -6.07931085 2.66206955 -9 6 Z M29 5 C29 5.66 29 6.32 29 7 C34.3935496 6.18091802 34.3935496 6.18091802 37 2 C32.77471908 2 31.95481492 2.25624329 29 5 Z M-86 7 C-85 9 -85 9 -85 9 Z " fill="#000000" transform="translate(421,238)"/>
<path d="M0 0 C0.33 1.65 0.66 3.3 1 5 C1.70125 4.319375 2.4025 3.63875 3.125 2.9375 C6.65037142 0.56170621 8.01126044 0.88686338 12 2 C12.33 3.32 12.66 4.64 13 6 C13.886875 5.319375 14.77375 4.63875 15.6875 3.9375 C20.24965326 1.26907074 20.24965326 1.26907074 24 3 C24.763125 4.010625 25.52625 5.02125 26.3125 6.0625 C30.6919765 10.84936966 35.42278961 10.10794549 40.75 7.25 C43.52234734 5.33068261 45.67543163 3.41066349 48 1 C48.66 1 49.32 1 50 1 C46.71831989 9.86053629 37.67251804 13.28539107 29 12 C25.66399633 9.94161475 24.1737824 8.2606736 22 5 C17.76100578 5.45417795 16.4910873 7.76158651 14 11 C12 11 12 11 9 4 C4.619958 5.28824765 2.31621791 7.46654595 -0.66796875 10.7578125 C-2 12 -2 12 -4 12 C-3.69230293 10.18667846 -3.37870936 8.37435655 -3.0625 6.5625 C-2.80146484 5.04849609 -2.80146484 5.04849609 -2.53515625 3.50390625 C-1.78627145 0 -1.78627145 0 0 0 Z " fill="#000000" transform="translate(208,242)"/>
<path d="M0 0 C3.3 0 6.6 0 10 0 C10.01458252 0.69448242 10.02916504 1.38896484 10.04418945 2.10449219 C10.11969836 5.32015765 10.21601054 8.53489827 10.3125 11.75 C10.34633789 13.38775391 10.34633789 13.38775391 10.38085938 15.05859375 C10.98331224 33.57032722 16.20013096 50.22214165 36.578125 53.40234375 C38.71397696 53.64749657 40.85686379 53.82990982 43 54 C37.95575135 79.22124325 -8.2792777 59 -34 59 C-35 55 -35 55 -34 54 C-31.98315961 53.70087977 -29.96118817 53.43610463 -27.9375 53.1875 C-21.69483341 52.26925925 -15.98395753 51.06480367 -11.4140625 46.37109375 C-10 45 -10 45 -8 45 C-6.54355509 41.42746472 -5.19476056 37.83498976 -3.9375 34.1875 C-3.42509766 32.72376953 -3.42509766 32.72376953 -2.90234375 31.23046875 C-0.92016075 24.13408201 -0.76209969 16.82211764 -0.4375 9.5 C-0.37272461 8.12328125 -0.37272461 8.12328125 -0.30664062 6.71875 C-0.20166614 4.47929438 -0.10044292 2.23966344 0 0 Z " fill="#000000" transform="translate(150,271)"/>
<path d="M0 0 C5.40737719 -0.24850079 10.81138956 -0.42922598 16.22314453 -0.54931641 C18.06064776 -0.59939782 19.89775655 -0.66749071 21.73388672 -0.75439453 C33.81466021 -1.31156531 40.67458134 -1.52449508 47 10 C47.66 10.33 48.32 10.66 49 11 C49 7.37 49 3.74 49 0 C51.97 0 54.94 0 58 0 C58 65 58 65 55 66 C48.52710166 59.11090853 42.20291043 52.18463359 36.27734375 44.8125 C33.73089702 41.66766013 31.12250892 38.58136887 28.5 35.5 C24.38567589 30.65911735 20.3417667 25.76730124 16.3359375 20.8359375 C14.60916244 18.73955173 12.86774925 16.66423699 11.1015625 14.6015625 C10.60720703 14.02341797 10.11285156 13.44527344 9.60351562 12.84960938 C8.64449162 11.73095919 7.68242719 10.61490568 6.71679688 9.50195312 C4.12618828 6.47894427 2.00255699 3.43264467 0 0 Z " fill="#000000" transform="translate(300,271)"/>
<path d="M0 0 C0.66 0 1.32 0 2 0 C2.33 6.27 2.66 12.54 3 19 C-1 18 -1 18 0 0 Z " fill="#000000" transform="translate(143,367)"/>
<path d="M0 0 C0.99 0 1.98 0 3 0 C3 6.27 3 12.54 3 19 C0 18 0 18 0 0 Z " fill="#000000" transform="translate(156,367)"/>
<path d="M0 0 C0.66 0 1.32 0 2 0 C2.33 6.27 2.66 12.54 3 19 C-1 18 -1 18 0 0 Z " fill="#000000" transform="translate(167,367)"/>
<path d="M0 0 C4.28793584 0 4.01998329 1.83596992 5.9296875 5.2734375 C7.00897274 7.1612614 7.00897274 7.1612614 9 9 C9.1953125 11.3828125 9.1953125 11.3828125 9.125 14.125 C9.10695312 15.03507812 9.08890625 15.94515625 9.0703125 16.8828125 C9.03550781 17.93082031 9.03550781 17.93082031 9 19 C7.68 18.67 6.36 18.34 5 18 C5.05800781 17.43152344 5.11601562 16.86304688 5.17578125 16.27734375 C5.55798916 9.73612831 4.10704545 7.03113067 0 2 C0 1.34 0 0.68 0 0 Z " fill="#000000" transform="translate(182,367)"/>
<path d="M0 0 C0.66 0 1.32 0 2 0 C2.33 6.27 2.66 12.54 3 19 C2.01 19 1.02 19 0 19 C0 12.73 0 6.46 0 0 Z " fill="#000000" transform="translate(210,367)"/>
<path d="M0 0 C4.15656915 1.38552305 4.90639955 4.14919071 6.6875 7.875 C7.00783203 8.51308594 7.32816406 9.15117187 7.65820312 9.80859375 C9.08290944 12.71876144 10 14.71997964 10 18 C8 18 8 18 2 5 C2 9.62 2 14.24 2 19 C-1 18 -1 18 0 0 Z " fill="#000000" transform="translate(225,367)"/>
<path d="M0 0 C2 1 2 1 1.9375 4.9375 C1.92995028 9.69382325 2.40112883 14.28388953 3 19 C-1 18 -1 18 -0.96484375 15.2265625 C-0.95582031 14.03804688 -0.94679687 12.84953125 -0.9375 11.625 C-0.92589844 10.44164062 -0.91429687 9.25828125 -0.90234375 8.0390625 C-0.78533407 5.08078479 -0.78533407 5.08078479 -2 3 C-1.34 2.01 -0.68 1.02 0 0 Z " fill="#000000" transform="translate(242,367)"/>
<path d="M0 0 C4.54166674 0.35017524 6.60456721 3.62686391 9.25 6.9375 C9.70890625 7.48857422 10.1678125 8.03964844 10.640625 8.60742188 C14 12.72165644 14 12.72165644 14 15 C14.66 15 15.32 15 16 15 C15.67 16.32 15.34 17.64 15 19 C9.8494239 12.77352578 4.7681072 6.52576241 0 0 Z " fill="#000000" transform="translate(258,367)"/>
<path d="M0 0 C4.15656915 1.38552305 4.90639955 4.14919071 6.6875 7.875 C7.00783203 8.51308594 7.32816406 9.15117187 7.65820312 9.80859375 C9.08290944 12.71876144 10 14.71997964 10 18 C8 18 8 18 2 5 C2 9.62 2 14.24 2 19 C-1 18 -1 18 0 0 Z " fill="#000000" transform="translate(305,367)"/>
<path d="M0 0 C2 1 2 1 1.9375 4.9375 C1.92995028 9.69382325 2.40112883 14.28388953 3 19 C-1 18 -1 18 -0.96484375 15.2265625 C-0.95582031 14.03804688 -0.94679688 12.84953125 -0.9375 11.625 C-0.92589844 10.44164062 -0.91429687 9.25828125 -0.90234375 8.0390625 C-0.78533407 5.08078479 -0.78533407 5.08078479 -2 3 C-1.34 2.01 -0.68 1.02 0 0 Z " fill="#000000" transform="translate(322,367)"/>
<path d="M0 0 C3 1 3 1 2 18 C2.66 18.33 3.32 18.66 4 19 C2.68 19 1.36 19 0 19 C0 12.73 0 6.46 0 0 Z " fill="#000000" transform="translate(331,367)"/>
<path d="M0 0 C3 1 3 1 2 18 C2.66 18.33 3.32 18.66 4 19 C2.35 19 0.7 19 -1 19 C-0.67 12.73 -0.34 6.46 0 0 Z " fill="#000000" transform="translate(348,367)"/>
<path d="M0 0 C5.4920495 2.48028042 5.97020679 6.1672092 5 12 C3.484375 13.75390625 3.484375 13.75390625 2 15 C2.02320313 14.33613281 2.04640625 13.67226563 2.0703125 12.98828125 C2.23624305 6.27138984 2.23624305 6.27138984 0 0 Z " fill="#000000" transform="translate(294,368)"/>
<path d="M0 0 C1.41000419 2.82000838 1.37608381 5.59357703 1.62109375 8.7109375 C2.02249448 11.13589449 2.79862685 12.8696298 4 15 C-1.91413742 12.43720712 -2.44134756 9.17886578 -2 3 C-1.34 2.01 -0.68 1.02 0 0 Z " fill="#000000" transform="translate(281,370)"/>
</svg>
